<?xml version="1.0" standalone="no"?>
<!DOCTYPE svg PUBLIC "-//W3C//DTD SVG 20010904//EN"
 "http://www.w3.org/TR/2001/REC-SVG-20010904/DTD/svg10.dtd">
<svg version="1.0" xmlns="http://www.w3.org/2000/svg"
 width="200.000000pt" height="200.000000pt" viewBox="0 0 200.000000 200.000000"
 preserveAspectRatio="xMidYMid meet">
<metadata>
Created by potrace 1.11, written by Peter Selinger 2001-2013
</metadata>
<g transform="translate(0.000000,200.000000) scale(0.100000,-0.100000)"
fill="#000000" stroke="none">
<path d="M870 1400 c-174 -59 -262 -209 -259 -439 1 -73 28 -246 39 -246 1 0
3 -7 5 -16 7 -39 67 -147 102 -185 49 -53 92 -75 162 -80 30 -3 59 -10 62 -16
10 -15 1 -35 -15 -35 -38 0 -110 -29 -145 -59 -44 -38 -60 -74 -55 -123 4 -29
-2 -40 -32 -70 -37 -37 -77 -109 -68 -123 3 -4 30 -8 60 -8 49 0 57 3 84 33
28 31 29 32 44 12 8 -11 16 -26 16 -32 0 -10 48 -13 204 -13 l204 0 23 38 c12
20 24 39 25 41 7 9 56 -32 66 -55 10 -22 17 -24 75 -24 57 0 63 2 63 20 0 50
-90 170 -127 170 -11 0 -13 7 -9 25 11 43 -11 100 -48 129 -39 30 -126 55
-179 52 -27 -1 -37 3 -38 14 0 8 -3 26 -5 40 -3 21 5 33 40 63 29 24 56 61 78
104 l33 68 -1 185 c-2 267 -34 397 -119 482 -64 64 -181 84 -285 48z"/>
</g>
</svg>
